<svg id="Layer_1" data-name="Layer 1" xmlns="http://www.w3.org/2000/svg" viewBox="0 0 288 288"><defs><style>.cls-1{fill:#175d8d;}.cls-2{fill:#047cc0;}.cls-3{fill:#1d364d;}.cls-4{fill:#1c496d;}</style></defs><title>web_logo</title><polygon class="cls-1" points="144 0 288 0 288 99 243 99 243 54 189 54 189 117 288 117 288 288 144 288 144 189 189 189 189 234 243 234 243 171 144 171 144 0"/><path class="cls-2" d="M288,315V144H144V432h45V378h54v54h45V333H189V315Zm-99-54V198h54v63Z" transform="translate(-144 -144)"/><rect class="cls-3" x="144" y="189" width="18" height="99"/><rect class="cls-3" x="144" width="18" height="171"/><rect class="cls-3" x="162" width="9" height="18"/><rect class="cls-3" x="162" y="270" width="9" height="18"/><rect class="cls-4" x="162" y="189" width="9" height="81"/><rect class="cls-4" x="162" y="18" width="9" height="153"/></svg>