<svg id="Layer_1" data-name="Layer 1" xmlns="http://www.w3.org/2000/svg" width="392.28" height="392.28" viewBox="0 0 392.28 392.28"><title>WebsiteIcon</title><circle cx="315.28" cy="280.98" r="44.3" transform="translate(-70.49 509.21) rotate(-81.7)" style="fill:#f57f17"/><path d="M286.66,45.26C179.49,29.62,79.93,103.83,64.29,211S122.86,417.74,230,433.38a195.29,195.29,0,0,0,129-25.79l-14.7-23.91a98.25,98.25,0,1,1,72.59-69l18.57,8.81a196,196,0,0,0,16.88-55.84C468,160.46,393.84,60.9,286.66,45.26Z" transform="translate(-62.21 -43.18)" style="fill:#fbc02d"/><path d="M291.76,69.45a173,173,0,1,0,56.58,320.69l-13-21.07a86.48,86.48,0,1,1,68-70.16c-.76,4.46-.56,5-1.72,8.51L417.64,315a145.71,145.71,0,0,0,15.43-45.87A173,173,0,0,0,291.76,69.45Z" transform="translate(-62.21 -43.18)" style="fill:#f9a825"/></svg>