<svg id="Layer_1" data-name="Layer 1" xmlns="http://www.w3.org/2000/svg" width="160" height="160" viewBox="0 0 160 160"><title>web_logo</title><path d="M41,80A40,40,0,1,0,81,40l-1,0V80Z" style="fill:none"/><path d="M41,80H80V40A40,40,0,0,0,41,80Z" style="fill:#e65100"/><path d="M160,80A80,80,0,0,0,80,0V40l1,0a40,40,0,0,1,27.77,68.77l27.8,27.8A79.75,79.75,0,0,0,160,80Z" style="fill:#ffb300"/><path d="M41,80H0a80,80,0,0,0,80,80V120A40,40,0,0,1,41,80Z" style="fill:#ffb300"/><path d="M108.77,108.77,80,80v40l1,0A39.86,39.86,0,0,0,108.77,108.77Z" style="fill:#e65100"/></svg>